<svg xmlns="http://www.w3.org/2000/svg" version="1.1" xmlns:xlink="http://www.w3.org/1999/xlink" xmlns:svgjs="http://svgjs.com/svgjs" width="1000" height="1000"><rect width="1000" height="1000" rx="500" ry="500" fill="#000000"></rect><g transform="matrix(1.8666666666666667,0,0,1.8666666666666667,149.78095296223955,142.8770833333333)"><svg xmlns="http://www.w3.org/2000/svg" version="1.1" xmlns:xlink="http://www.w3.org/1999/xlink" xmlns:svgjs="http://svgjs.com/svgjs" width="375" height="375"><svg xmlns="http://www.w3.org/2000/svg" width="375" viewBox="0 0 375 375" height="375" version="1.0"><g fill="#FFF"><g><g><path d="M 238.921875 0 L 203.84375 0 C 199.914062 0 196.6875 -0.984375 194.15625 -2.953125 C 191.625 -4.921875 189.796875 -7.363281 188.671875 -10.28125 L 170.46875 -60.03125 L 69.46875 -60.03125 L 51.25 -10.28125 C 50.351562 -7.695312 48.582031 -5.335938 45.9375 -3.203125 C 43.300781 -1.066406 40.070312 0 36.25 0 L 1.015625 0 L 96.78125 -243.8125 L 143.15625 -243.8125 Z M 81.09375 -92.0625 L 158.828125 -92.0625 L 129.15625 -173.15625 C 127.800781 -176.757812 126.304688 -181.003906 124.671875 -185.890625 C 123.046875 -190.773438 121.445312 -196.085938 119.875 -201.828125 C 118.300781 -196.085938 116.753906 -190.742188 115.234375 -185.796875 C 113.722656 -180.859375 112.238281 -176.535156 110.78125 -172.828125 Z M 81.09375 -92.0625" transform="translate(67.784 317.625)"></path></g></g></g></svg></svg></g></svg>