<svg xmlns="http://www.w3.org/2000/svg" width="375" viewBox="0 0 375 375" height="375" version="1.0"><path d="M 187.480469 103.480469 C 141.085938 103.480469 103.480469 141.085938 103.480469 187.480469 C 103.480469 233.871094 141.085938 271.480469 187.480469 271.480469 C 233.871094 271.480469 271.480469 233.871094 271.480469 187.480469 C 271.480469 141.085938 233.871094 103.480469 187.480469 103.480469"/><g fill="#FFF"><g><g><path d="M 85 0 L 72.515625 0 C 71.117188 0 69.96875 -0.347656 69.0625 -1.046875 C 68.164062 -1.742188 67.519531 -2.613281 67.125 -3.65625 L 60.640625 -21.359375 L 24.71875 -21.359375 L 18.234375 -3.65625 C 17.910156 -2.738281 17.28125 -1.898438 16.34375 -1.140625 C 15.40625 -0.378906 14.253906 0 12.890625 0 L 0.359375 0 L 34.4375 -86.734375 L 50.921875 -86.734375 Z M 28.859375 -32.75 L 56.5 -32.75 L 45.953125 -61.609375 C 45.472656 -62.890625 44.941406 -64.394531 44.359375 -66.125 C 43.773438 -67.863281 43.207031 -69.753906 42.65625 -71.796875 C 42.09375 -69.753906 41.539062 -67.851562 41 -66.09375 C 40.457031 -64.34375 39.925781 -62.804688 39.40625 -61.484375 Z M 28.859375 -32.75" transform="translate(144.912 233.86)"/></g></g></g></svg>